/* XPM */
static char *_d118d8b2de64271956ad1083fe40346P76s7g9UpKdDLxbb[] = {
/* columns rows colors chars-per-pixel */
"4 4 4 1 ",
"  c #FDFDFD",
". c #FDFCFD",
"X c gray99",
"o c white",
/* pixels */
"    ",
".   ",
"X   ",
"X   "
};
