/* XPM */
static char *_c2ce5fbdb664152f325095adf0b9b2f64OOUmDEiJ9ipRvr[] = {
/* columns rows colors chars-per-pixel */
"64 64 134 2 ",
"   c #141415",
".  c #161619",
"X  c #1C1B1D",
"o  c #211E1D",
"O  c #1D201F",
"+  c #1E1E21",
"@  c #211F21",
"#  c #1E2022",
"$  c #242324",
"%  c #292626",
"&  c #272827",
"*  c #292926",
"=  c #262629",
"-  c #29272A",
";  c #27282C",
":  c #2C2B2C",
">  c #302E2D",
",  c #2F302E",
"<  c #32312E",
"1  c #2E2E31",
"2  c #312F32",
"3  c #2F3134",
"4  c #333334",
"5  c #393635",
"6  c #373837",
"7  c #3A3936",
"8  c #35353A",
"9  c #39373A",
"0  c #36383C",
"q  c #3B3B3C",
"w  c #413E3C",
"e  c #3F403F",
"r  c #43413E",
"t  c #49453F",
"y  c #3D3E41",
"u  c #403F42",
"i  c #3E4144",
"p  c #444344",
"a  c #494644",
"s  c #474846",
"d  c #4B4946",
"f  c #454549",
"g  c #484749",
"h  c #47484C",
"j  c #4C4B4B",
"k  c #504C46",
"l  c #514E4B",
"z  c #4F504D",
"x  c #54514D",
"c  c #58554F",
"v  c #4A4755",
"b  c #4D4D52",
"n  c #514F52",
"m  c #4E5053",
"M  c #545056",
"N  c #565555",
"B  c #545457",
"V  c #545253",
"C  c #585554",
"Z  c #595653",
"A  c #5C5954",
"S  c #535159",
"D  c #52505B",
"F  c #53515B",
"G  c #57565B",
"H  c #51525C",
"J  c #52535C",
"K  c #55575C",
"L  c #56575D",
"P  c #54545A",
"I  c #5B5559",
"U  c #595759",
"Y  c #5A575B",
"T  c #59555F",
"R  c #59575C",
"E  c #56585C",
"W  c #5B5958",
"Q  c #5A5859",
"!  c #5D5B58",
"~  c #5C5A5B",
"^  c #605D5B",
"/  c #515062",
"(  c #545463",
")  c #565663",
"_  c #575663",
"`  c #5B5760",
"'  c #5B5A60",
"]  c #5B5B63",
"[  c #5F5C62",
"{  c #585864",
"}  c #5A5B64",
"|  c #5A5A65",
" . c #5B5B67",
".. c #5D5C62",
"X. c #5F5E68",
"o. c #5F5D6C",
"O. c #625F63",
"+. c #605E65",
"@. c #615E66",
"#. c #635F61",
"$. c #656360",
"%. c #656462",
"&. c #666464",
"*. c #666467",
"=. c #646264",
"-. c #6A6565",
";. c #636069",
":. c #656269",
">. c #64656A",
",. c #61606E",
"<. c #65636C",
"1. c #66646F",
"2. c #63636D",
"3. c #686369",
"4. c #6B676A",
"5. c #6E6B6E",
"6. c #6F6C6F",
"7. c #6A696D",
"8. c #616073",
"9. c #676675",
"0. c #666670",
"q. c #696571",
"w. c #686874",
"e. c #686876",
"r. c #716E71",
"t. c #726F70",
"y. c #706F71",
"u. c #716D78",
"i. c #777475",
"p. c #737171",
"a. c #767379",
"s. c #7A7378",
"d. c #7C787A",
"f. c #847B7F",
/* pixels */
"j ' L E L ' +.: h <.S >.B 4 p j V Q :.u.a.4.j +.[ s : l &.&.t.p V i.6.6.O.q.;.$ b 1.S ;.j - u j V G ,.9.9. ./ 8. .q = b  . .H 3 ",
"p X.e.e. .S T 1 8 M h s s - p j l V j n C I 3.a.I s - s x V l q g &.r.5.I j V 4 0 j p s p - p p j h p p f y ) ) f 4 - p h h y 4 ",
"q y h j h p s q = h s V l 4 5 s s s p 5 5 : < r r 5 = s &.Q j q w p s l j p j 5 = g j V j 2 q p s p q 8 4 1 4 r q 1 = b H b p 4 ",
"q h p p h h h q = p n V x 4 4 p w q q s s p q p j p 4 B $.~ x q q x p p s s s 4 - s l x j : 8 y 8 8 4 u y q 8 q p 8 1 b b j p 4 ",
": q y q q q 4 X . 4 6 q q X - : = $ $ q 4 4 > < 4 : X : 7 w p 4 $ q q 5 8 q :   X 2 < 8 1 X : - - $ - 2 1 : = - - + . 1 8 8 8 = ",
"- = : 4 : @ : 8 4 4 q 6 4 : $ q ~ s j q s h + q w = 4 > > : 2 4 4 : < w 4 @ 4 y q q p q 4 4 = u ) b j y b h + h y : 8 1 1 1 8 q ",
"h s h T R 1 8 h h g B h p j 8 g =.V V j j C 4 ~ -.j p r r r a j j l x -.O.1 0 p p j j h p s 4 f S j j f h h 1 b n p 0 y y q p s ",
"p s j l h - : q q h h p p y 4 4 j x x j s s : q s p 5 p s r r w a l x l p = : q y h p p p q 1 8 b j b h f y ; q u q 4 i y q q q ",
"r s j j p 4 4 4 q q y p y q 4 : j V V V j p - q s h q q p w w w t l l k w q 8 4 q q y y q 8 - 1 j b j j h q : 0 y f 2 9 y q q q ",
"q r p q q 4 q - : 4 8 q 4 4 = = y s p p p 0 $ 8 q q q = q q q w w t r q 5 : q % - : 8 6 4 : @ = 0 y y q q 1 + 1 1 8 1 @ 4 8 8 q ",
"4 : : - - X $ : X X = : : : = $ : : : 1 4 4 X - 4 4 : X = < < : > 4 : - & X % - @ $ : : : - : = 1 1 - ; 8 8 = 8 8 8 : X 1 4 4 - ",
"q j j j q 8 q : 4 h j p q = h h p q % + j *.s.f.#.V s p V l x 5 5 ~ C V w q s : q V n h p ; h h p q = = j ) ,.,.L b i f b b b 4 ",
"n x j j s s j 6 : j B b j 8 g s s s q : p j M V V h j V V V x q s l d d s s j 4 : h b b h 9 p s p y 8 1 i h j h h i f b b b p 4 ",
"5 q p p p p p 8 : y h b j q q p p s q - p p j j h p g j j h s 5 5 a s a s p s 4 4 y g j h 6 8 u p i 2 : y y f f p y p p p i y 1 ",
"< q s s s s p 8 1 y y y y q : 5 r s 4 $ p y s s p y y q q y p 4 < a s d h s p : 8 y q y y 4 : 8 q u = $ y q y y q 0 8 4 8 0 q 1 ",
": 8 8 q q q 8 $ $ 4 1 4 4 1 # - $ = X   8 q 8 : - - $ $ $ = : X - 5 4 5 q q : X $ 1 1 : : : $ $ + $ . + 4 8 1 = = $ + + $ = = X ",
"8 8 q : = q 8 : : 8 y q = 8 h 2 4 : q q 6 4 q j y X 8 B b p u 5 q p d : : p q 5 q s g s = y h q 8 8 p y 9 1 y S q + v o.S f p p ",
"j h j q 8 s h V B B B G q q j h g u h h s u u j V : Q r.&.V A A x j x 5 q s V ~ ~ C B V 8 q h h y q p p i q 0 y y : S  .b b b j ",
"q q r 8 8 q p j j s j h 4 : p j r q s j d s w 1 : $ 5 a l j s a r r t 5 7 r d x d s x h : 8 g h q q h h h p y 1 = + 4 p h p p q ",
"p q q 8 - q q s r q p j 8 4 s s 8 q h s j j j s - X q s s j j d a r a < 4 r p s p r r j 4 8 s y 4 u p p h f p y = + q y p p p p ",
"p q p 8 4 q q p s p q p 8 : q q : q p r s s s q 8 $ q p p p s a p r p > 7 t p a p p r p > 4 q 4 : q q q y p q 8 3 $ 8 q q y q q ",
"8 1 4 - : 8 8 8 1 3 8 5 X X = @ X < 4 4 : 4 4 1 : X > 5 5 5 5 < > 5 > : 5 q q 8 8 4 < > X - - X $ 4 8 8 : : 1 1 : + 4 4 0 8 4 : ",
"4 y 8 8 8 0 y 8 b s X 4 p b g + p l Q O.n = q s j w a l M V j 5 4 g 5 q r p p s ..y X q M T s = b n ` ' j : s g j y h b B b y 3 ",
"4 q y 8 q i i i f p - 8 h V B 8 s j j l ~ 6 r l x c k l x l a 5 8 p e q r a p p p q : r d j h 4 p g g h h 4 q s j j p s s p q 4 ",
"4 8 0 8 3 8 q 8 4 0 = q p u q : 4 q q q 5 : 5 d c c l d l d a 5 8 p q q 5 q q 5 q q - p p p 6 1 q q q q 8 : q s j h p s s p q 4 ",
": 3 0 4 : $ ; 3 4 4 = : q q : $ 4 4 8 4 4 * 5 d s r 7 7 5 q q 4 $ q 5 5 = + - 8 5 : $ 4 q q $ $ < 4 8 4 : $ 8 p q 4 : 1 3 4 4 - ",
": : 1 1 1 ; O . = 2 X X - 2 = + = = $ 4 4 o % : $ : > : : 4 5 > 2 q 8 6 q 8 % X 4 8 = : 4 5 : 2 4 % - q 4 $ : $ + 1 3 3 4 q 8 8 ",
"m S b S L ..0.i 4 =.h s s V b [ =.h * j V j r , $ s B B n V l n ~ Q R ~ ~ 4.d.q j &.Z c Z A C =.O.w 2 h j h w : : b m m b b h b ",
"j b j h i y b f - l V V V p r p w q 4 * < 7 q 5 < j V V j j j j V V j h p s V 4 q ^ Z A c a a t w w < < 7 q w 5 4 j h h f p f f ",
"f i y i 0 0 y 3 & s j s s r s h w q : : 4 4 w q : s h h s h h h h g s s r r s : 7 c l k d d x x t r > 7 7 7 r < : f p p p p i i ",
"i y p f p q y 3 $ h s q p p p s s p : < 5 5 5 8 : p g h j h h p p p h j j w s % 7 x r r d d d d d r : w w w w < 3 p i i y y q 0 ",
"q 1 3 8 8 1 $ = @ 8 3 4 4 q 8 1 1 : X = > > 4 - X - 8 4 8 6 4 8 8 4 4 8 6 = $ X % 4 4 6 5 4 > > > - o 4 5 4 4 $ X : : 1 0 8 8 4 ",
"q f q q 8 q p $ @ b f j j = = 4 8 q s g g p 8 p g p $ q $.=.Q q q V h s p n j o 5 ~ f G s $ 4 r p j l n b f y S B 5 $ h [ G b 4 ",
"q B B G V b ~ q - j g g h 4 < s j V j l j j B p.^ j * p x x j 5 s ! A A x Z ^ 8 r l j x x : t x Z Z l l j p T >.M q - s h h y 4 ",
"q q h j h s p p $ 4 r j j q 4 r s s p q 5 - 2 p r 5 % q j j j q p d l x l d x q % d x A Z 4 w k l d a r 7 > 7 d r 4 = s j h f 4 ",
"q p p i h s h p $ q j V l q : r r q q 5 q p 5 p s r > h x z j q w x s d d j x q - d Z A c < r k r r w w a a r k l q < m m j s 4 ",
"4 q p q q p q : . : q w p = = 4 * * $ 4 8 4 < 4 q 8 o < r s s 5 % p p q r s 5 X X 5 w r q X < < > : : 7 7 5 4 5 6 - X 4 y u q * ",
"4 $ : 1 1 = $ : $ - 4 8 4 = $ = j p q q q p $ : 8 = $ : > > > 4 : - : 2 > $ 4 4 > 5 w u 4 < $ q [ j j p j p $ w q - 2 4 2 : 4 8 ",
"h p u s h 4 : p p y j j p p q 8 ~ V V h h M 4 s B h w q q w r l l d d x j < q s a l Z x d l 7 g ^ Z Z x A j 4 V V s r p r r s g ",
"p p h j h 4 = 8 q p h p y y q 1 h h j j s h 4 5 s p 5 w s r t r a l c Z d : 5 p r l l a d a 5 7 Z V Z Z x s > s d r 5 s a r w q ",
"p p s j p 4 1 2 9 q y p p q 8 : s j j b j g : 4 p h q 8 s w r w t x x x r 4 4 q r r a a p r 4 5 V V V Z x r : r a j 5 q p w q q ",
"p q s q q 4 8 : - 4 8 q 8 4 - $ q p p p p y = 4 q q y * q r w w r a a r w < q : : 5 q r 5 5 $ : a d s s s 8 $ q 5 r 8 $ q q q q ",
"q 4 4 : : = $ : $ X = 2 1 1 : + : 4 4 4 4 3 X $ 1 4 4 X $ 4 < < < 4 < > : o : : o $ 4 8 4 4 : $ < < < 4 6 1 X : 4 8 : X : 8 4 : ",
"5 8 q 8 8 : 4 4 - q u y q = y j 8 4 : X q p g j B b p q s j j q > h p p q 5 w > 6 g b s q - l j r q $ % j j M C ~ V p j V V V 4 ",
"p p h s s p s i = y h h h 8 q h p p q - y j m V V j h b V l j q p x d j d d x 5 , h x B j 5 c k k d w 4 j C ~ C V s j C V V s 4 ",
"q q y p p p p q = 8 p h j y 4 y p i q = q p h j j p p j h s s 5 5 a a d d a d 5 4 p j m j q w a d d 5 : s s l j j p j j h s p : ",
"8 8 p s p p y q ; y q y y q : 8 q p q X q q p f i y y q q p s 5 : t s d d d s < 5 p p s s q 4 w a j : $ s p h s p p p q q p p - ",
"4 4 q q y q 8 : + 2 2 4 4 8 = - = = #   4 q q 1 : : = = = : 4 @ % q 5 q u q 4 X $ 8 4 4 5 , $ - $ =   X q q 8 : ; = $ = = : : X ",
"q : 8 4 $ 8 8 1 = 4 q 8 : $ 8 2 1 : 2 8 4 : 4 u p X - b n u q 4 4 5 p : : r q 6 5 w p p = 5 s q 6 4 s p w 4 s G y X h X.P h p q ",
"h p s u - u g b B V n b i : u h h q p h p q 8 u b 1 j 7.=.M C C j d l 5 q s x ~ ^ A A V 4 u j x d p l l j p w g h 1 I =.B B V j ",
"s q q q 1 q y g j s g h q : y h p q p g h h y 3 : $ : y j g s s r r a 5 7 r d x l d x x 4 6 j l w p x x x l p > = $ 5 s j s s r ",
"s q q q = 8 q p p q q s q : y p 6 q s s h h g p : . 4 p s s s s r r t 5 > r r d t r r j 4 q s s 5 a l l l x l p = X p s s g s p ",
"s q q q : q q q i y q y q : 8 q : 8 q q p p p q q $ 4 p p p p p r r p 4 5 p p p p p p a < 4 q 8 < r r a d d p w 4 $ q w p p p r ",
"p 8 8 1 : 8 0 0 4 3 3 8 = X ; $ X 1 4 8 4 1 4 2 1 X - 5 8 6 8 4 4 q 8 : 4 q q q 8 8 4 < X = - X $ 4 q q 2 : 8 8 2 + 6 6 q 6 8 1 ",
"q 8 8 1 4 8 q 0 y y + $ 8 q y $ = q p h q = 4 p p q q h j l p 5 : p q q q p p y g q X 4 p j u $ C A -.Z w * s x l a l V B V p : ",
"q 8 y 8 8 y y q y y 1 : p h h 8 4 p f s g 6 q s j x s s j j s q 4 y q q q p p r p q : w j j s 4 r k l j s < a l c c d d j s p > ",
"q 3 0 8 3 8 8 8 4 8 : 1 y y y 1 1 8 q q 6 : 4 p j j s p j s p q 4 q q q 4 5 q q q q - p p p q > q q w w 5 : r l x x d s s p p > ",
"q : 0 8 1 # = 1 3 4 ; = 8 8 4 + 1 1 8 4 4 - : p s q 5 8 5 5 q 8 $ 8 8 8 - X - 4 8 4 $ 2 q q = $ > 4 5 4 4 $ 7 d p 7 < 4 5 8 0 - ",
"y = 4 3 1 1 $ + # 3 $ + - 1 : + = = $ : : $ $ : $ - : : : 4 4 1 - 1 4 0 6 4 = X : q % - 4 q 2 > 4 - $ q 5 % : $ X 4 6 4 4 q 8 8 ",
"j h p h h b b p $ j g s s j j j b s - 8 q q q 4 $ q j j j j h h n j j b n M B 8 q ^ x x c V V Z Z w > a d d t 4 : m G M b b j j ",
"j h f f y q p p = p n j n h y p q q 8 : 4 q q q 1 p b b j h h j j j j h y p h 4 4 Z x Z x r a d r r 4 4 7 w r 8 4 j b b h h h f ",
"h i i y y 0 y 0 $ y h h s u p h p q 4 : 4 8 q q - y h f f h f f h s p h y y p 2 < l j d a p j l a p > 5 7 7 p 8 1 h h h h f f i ",
"f y y i i q q q X q h y y p p p s p 4 1 4 4 8 8 - y p f f f p i y u p h h q p : : j p p s s s j s r : q q q q 4 1 p p f f i y q ",
"f 8 0 0 y y = 1 X q 9 q 8 q y q q y $ - 4 1 8 8 $ ; 0 8 0 0 8 8 q 8 9 9 q 1 $ $ $ 6 4 4 4 4 8 9 8 : @ 4 4 4 5 : X 1 0 8 0 8 4 8 "
};
